<?xml version="1.0" encoding="utf-8"?>
<!-- Generator: Adobe Illustrator 24.0.0, SVG Export Plug-In . SVG Version: 6.00 Build 0)  -->
<svg version="1.1" id="Layer_1" xmlns="http://www.w3.org/2000/svg" xmlns:xlink="http://www.w3.org/1999/xlink" x="0px" y="0px"
	 viewBox="0 0 1080 578.28" style="enable-background:new 0 0 1080 578.28;" xml:space="preserve">
<style type="text/css">
	.st0{fill:#FFFFFF;}
	.st1{fill:#983980;}
	.st2{fill:#EE783C;}
	.st3{fill:url(#SVGID_1_);}
	.st4{opacity:0.2;fill:#983980;}
	.st5{opacity:0.2;}
	.st6{opacity:0.2;fill:#EE783C;}
	.st7{fill:url(#SVGID_2_);}
	.st8{fill:url(#SVGID_3_);}
	.st9{fill:url(#SVGID_4_);}
	.st10{fill:url(#SVGID_5_);}
</style>
<g>
	<g>
		<path class="st1" d="M129.62,475.44c0,6.34-2.34,9.56-6.93,9.56h-5.17h-3.52H62.68v-31.13H49.01v25.96
			c0,12.59-6.54,21.76-17.08,21.76c-10.64,0-17.18-8.88-17.18-21.76v-25.96H1v27.23c0,18.74,13.66,33.18,30.84,33.18
			c11.42,0,21.27-6.05,26.64-16.2h55.53h3.52h8.1c5.66,0,10.15-1.95,13.37-5.95c2.83-3.42,4.29-7.71,4.29-12.88v-25.37h-13.66
			V475.44z"/>
		<path class="st1" d="M188.95,475.05c0,6.54-2.34,9.86-6.93,9.95l-12.1-43.23h-14.44l12.3,43.23h-14.54v13.08h32.4
			c4.78,0,8.78-1.46,12-4.39c3.22-3.03,4.78-6.83,4.78-11.61v-46.84h-13.47V475.05z"/>
		<path class="st1" d="M276.58,479.83c0,12.69-6.34,21.76-16.98,21.76c-10.83,0-17.18-9.08-17.18-21.76v-26.06h-13.76v27.32
			c0,18.74,13.66,33.18,30.84,33.18c17.66,0,30.84-15.03,30.84-33.18v-27.32h-13.76V479.83z"/>
		<path class="st1" d="M321.47,453.68c-12.79,0-21.96,8.98-21.96,22.35c0,13.08,9.37,22.64,21.96,22.64c4.59,0,7.81-1.46,9.66-4.49
			c0,5.27-5.37,9.08-10.83,9.08h-0.88v10.93h1.37c14.93,0,22.35-6.05,22.35-18.05v-19.91C343.14,463.34,334.06,453.68,321.47,453.68
			z M321.67,485.98c-5.37,0-8.49-4.59-8.49-10.05c0-5.76,3.22-9.86,8-9.86c4.88,0,8.3,4.2,8.3,10.15
			C329.47,482.17,326.55,485.98,321.67,485.98z"/>
		<rect x="353.19" y="435.14" class="st1" width="13.66" height="62.94"/>
		<circle class="st1" cx="259.41" cy="440.84" r="5.61"/>
		<circle class="st1" cx="32.52" cy="440.84" r="5.61"/>
		<circle class="st1" cx="117.91" cy="508.62" r="5.61"/>
		<circle class="st1" cx="131.76" cy="508.62" r="5.61"/>
	</g>
	<g>
		<path class="st1" d="M134.59,183.58c5.56,0,10.42-2.02,14.57-6.07c4.05-4.05,6.07-8.9,6.07-14.57c0-5.56-2.03-10.37-6.07-14.42
			c-4.15-4.15-9.01-6.22-14.57-6.22c-5.67,0-10.53,2.07-14.57,6.22c-4.05,4.05-6.07,8.86-6.07,14.42c0,5.67,2.02,10.53,6.07,14.57
			C124.06,181.56,128.92,183.58,134.59,183.58z M125.02,153.53c2.63-2.63,5.82-3.95,9.56-3.95c2.02,0,3.04,1.01,3.04,3.04
			c0,2.12-1.01,3.19-3.04,3.19c-1.92,0-3.64,0.71-5.16,2.12c-1.42,1.42-2.13,3.14-2.13,5.16c0,2.03-1.01,3.04-3.04,3.04
			c-2.13,0-3.19-1.06-3.19-3.19C121.08,159.3,122.39,156.16,125.02,153.53z"/>
		<path class="st1" d="M250.57,376.68c-5.67,0-10.53,2.07-14.57,6.23c-4.05,4.05-6.07,8.85-6.07,14.42c0,5.67,2.02,10.52,6.07,14.57
			c4.05,4.05,8.9,6.07,14.57,6.07c5.57,0,10.42-2.03,14.57-6.07c4.05-4.05,6.07-8.91,6.07-14.57c0-5.57-2.03-10.38-6.07-14.42
			C260.99,378.75,256.13,376.68,250.57,376.68z M250.57,390.19c-1.92,0-3.64,0.71-5.16,2.12c-1.42,1.42-2.12,3.14-2.12,5.16
			c0,2.02-1.01,3.04-3.04,3.04c-2.13,0-3.19-1.06-3.19-3.19c0-3.64,1.31-6.78,3.95-9.41c2.63-2.63,5.82-3.95,9.56-3.95
			c2.02,0,3.04,1.01,3.04,3.04C253.6,389.13,252.59,390.19,250.57,390.19z"/>
		<path class="st1" d="M294.74,376.68c-5.67,0-10.53,2.07-14.57,6.23c-4.05,4.05-6.07,8.85-6.07,14.42c0,5.67,2.02,10.52,6.07,14.57
			c4.05,4.05,8.9,6.07,14.57,6.07c5.67,0,10.52-2.03,14.57-6.07c4.05-4.05,6.07-8.91,6.07-14.57c0-5.57-2.03-10.38-6.07-14.42
			C305.27,378.75,300.41,376.68,294.74,376.68z M294.89,390.19c-2.03,0-3.75,0.71-5.16,2.12c-1.52,1.42-2.28,3.14-2.28,5.16
			c0,2.02-1.01,3.04-3.04,3.04c-2.03,0-3.04-1.06-3.04-3.19c0-3.64,1.26-6.78,3.79-9.41c2.63-2.63,5.82-3.95,9.56-3.95
			c2.02,0,3.04,1.01,3.04,3.04C297.78,389.13,296.81,390.19,294.89,390.19z"/>
		<path class="st1" d="M447.3,162.94c0,5.67,2.02,10.53,6.07,14.57c4.05,4.05,8.91,6.07,14.57,6.07c5.67,0,10.53-2.02,14.58-6.07
			c4.05-4.05,6.07-8.9,6.07-14.57c0-5.56-2.02-10.37-6.07-14.42c-4.05-4.15-8.91-6.22-14.58-6.22c-5.67,0-10.53,2.07-14.57,6.22
			C449.33,152.57,447.3,157.38,447.3,162.94z M458.39,153.53c2.63-2.63,5.82-3.95,9.56-3.95c2.02,0,3.04,1.01,3.04,3.04
			c0,2.12-0.96,3.19-2.88,3.19c-2.02,0-3.74,0.71-5.16,2.12c-1.52,1.42-2.28,3.14-2.28,5.16c0,2.03-1.01,3.04-3.04,3.04
			c-2.02,0-3.04-1.06-3.04-3.19C454.59,159.3,455.86,156.16,458.39,153.53z"/>
		<path class="st1" d="M445.79,144.27c5.67,0,10.53-2.02,14.58-6.07c4.05-4.05,6.07-8.91,6.07-14.57c0-5.56-2.02-10.42-6.07-14.57
			c-4.05-4.05-8.91-6.07-14.58-6.07c-5.56,0-10.37,2.03-14.42,6.07c-4.15,4.15-6.23,9.01-6.23,14.57c0,5.67,2.07,10.53,6.23,14.57
			C435.41,142.24,440.22,144.27,445.79,144.27z M436.38,114.21c2.63-2.63,5.77-3.95,9.41-3.95c2.12,0,3.19,1.01,3.19,3.04
			c0,2.12-1.01,3.19-3.04,3.19c-2.03,0-3.74,0.71-5.16,2.13c-1.42,1.42-2.12,3.14-2.12,5.16s-1.06,3.03-3.19,3.03
			c-2.02,0-3.04-1.06-3.04-3.19C432.43,119.98,433.74,116.84,436.38,114.21z"/>
		<path class="st1" d="M535.81,203.02c-4.76-4.86-10.48-7.29-17.15-7.29c-6.58,0-12.25,2.43-17,7.29c-4.86,4.76-7.29,10.42-7.29,17
			v85.01c0,3.44-1.17,6.33-3.49,8.65v0.15c-2.33,2.23-5.21,3.34-8.65,3.34c-1.72,0-3.34-0.3-4.86-0.91
			c-1.32-0.61-2.53-1.47-3.64-2.58c-2.43-2.33-3.64-5.21-3.64-8.65v-85.01c0-6.58-2.38-12.25-7.14-17
			c-4.76-4.86-10.48-7.29-17.15-7.29c-6.58,0-12.24,2.43-17,7.29c-4.86,4.76-7.29,10.42-7.29,17v85.01c0,3.44-1.16,6.33-3.49,8.65
			c-2.33,2.33-5.21,3.49-8.65,3.49c-3.34,0-6.17-1.16-8.5-3.49c-2.43-2.33-3.64-5.21-3.64-8.65v-85.01c0-6.58-2.38-12.25-7.14-17
			c-4.76-4.86-10.47-7.29-17.15-7.29c-6.58,0-12.25,2.43-17,7.29c-0.1,0-0.2,0.05-0.3,0.15c-0.1,0.1-0.15,0.2-0.15,0.3
			c-0.61,0.61-1.16,1.22-1.67,1.82l-0.15,0.15c0,0.1-0.05,0.2-0.15,0.3c-0.3,0.3-0.56,0.61-0.76,0.91v0.15
			c-0.1,0.1-0.2,0.25-0.3,0.46c-1.32,1.92-2.28,4.05-2.88,6.38c-0.61,2.03-0.91,4.15-0.91,6.38v85.01c0,3.44-1.16,6.33-3.49,8.65
			c-2.33,2.33-5.21,3.49-8.65,3.49h-5.31c-0.98,0-1.94,0.07-2.88,0.17v-0.17h-19.28c-3.34,0-6.17-1.16-8.5-3.49
			c-2.43-2.33-3.64-5.21-3.64-8.65v-85.01c0-6.58-2.38-12.3-7.13-17.15c-4.76-4.76-10.48-7.14-17.15-7.14
			c-6.58,0-12.25,2.38-17,7.14c-4.86,4.86-7.29,10.58-7.29,17.15v85.01c0,3.44-1.17,6.33-3.49,8.65c-2.33,2.33-5.21,3.49-8.65,3.49
			h-12.75h-6.22h-22.92c0.71-3.84,1.06-7.89,1.06-12.14v-48.58c0-16.8-5.92-31.12-17.76-42.96s-26.16-17.76-42.96-17.76
			c-16.8,0-31.12,5.92-42.96,17.76s-17.76,26.16-17.76,42.96v60.72H61.72c-3.34,0-6.22-1.16-8.65-3.49
			c-2.33-2.33-3.49-5.21-3.49-8.65v-51.61c0-6.58-2.38-12.24-7.13-17c-4.76-4.86-10.48-7.29-17.15-7.29s-12.4,2.43-17.15,7.29
			c-4.76,4.76-7.13,10.43-7.13,17v51.61c0,16.9,5.92,31.27,17.76,43.11c11.84,11.74,26.16,17.61,42.96,17.61h155.45h6.22h12.75
			c13.86,0,26.01-4,36.43-11.99c10.52,8,22.67,11.99,36.43,11.99h19.28v-0.17c0.94,0.1,1.9,0.17,2.88,0.17h5.31
			c13.86,0,26.01-3.95,36.43-11.84c10.52,7.89,22.67,11.84,36.43,11.84c13.46,0,25.6-4.05,36.43-12.14
			c10.93,8.1,23.08,12.14,36.43,12.14c16.9,0,31.27-5.87,43.11-17.61c11.74-11.84,17.61-26.21,17.61-43.11v-85.01
			C542.94,213.44,540.56,207.77,535.81,203.02z M25.44,244.91c-2.33,0-4.35,0.86-6.07,2.58c-1.72,1.72-2.58,3.7-2.58,5.92v5.62
			c0,2.43-1.21,3.64-3.64,3.64s-3.64-1.21-3.64-3.64v-5.62c0-4.35,1.57-8.05,4.71-11.08c3.04-3.13,6.73-4.71,11.08-4.71
			c2.43,0,3.64,1.22,3.64,3.64C28.93,243.7,27.77,244.91,25.44,244.91z M92.92,238.39c-2.18,4.86-3.26,10.38-3.26,16.55v7.89
			c0,2.43-1.22,3.64-3.64,3.64c-2.43,0-3.64-1.22-3.64-3.64v-7.89c0-7.18,1.29-13.61,3.87-19.28c2.58-5.67,6.4-11.03,11.46-16.09
			c10.22-10.22,22.52-15.33,36.89-15.33c2.43,0,3.64,1.22,3.64,3.64c0,2.43-1.21,3.65-3.64,3.65c-12.45,0-23.02,4.4-31.73,13.21
			C98.41,228.97,95.09,233.53,92.92,238.39z M146.73,305.03c0,3.44-1.16,6.33-3.49,8.65c-2.33,2.33-5.21,3.49-8.65,3.49
			c-3.34,0-6.22-1.16-8.65-3.49c-2.33-2.33-3.49-5.21-3.49-8.65v-48.58c0-3.34,1.16-6.17,3.49-8.5c2.43-2.43,5.31-3.64,8.65-3.64
			c3.44,0,6.32,1.22,8.65,3.64c2.33,2.33,3.49,5.16,3.49,8.5V305.03z M264.08,305.03c0,7.79-2.68,14.42-8.05,19.89
			c-1.12,1.12-2.28,2.08-3.49,2.89c-4.66,3.44-10.12,5.16-16.4,5.16h-0.76c-0.91,0-1.75-0.35-2.5-1.06
			c-0.76-0.71-1.14-1.57-1.14-2.58c0-1.01,0.38-1.87,1.14-2.58c0.76-0.71,1.59-1.06,2.5-1.06h0.76c5.36,0,10.02-1.82,13.97-5.46
			c0.2-0.2,0.4-0.4,0.61-0.61c4.05-4.05,6.07-8.91,6.07-14.57v-0.61c0-1.01,0.35-1.87,1.06-2.58c0.71-0.71,1.57-1.06,2.58-1.06
			c1.01,0,1.87,0.35,2.58,1.06c0.71,0.71,1.06,1.57,1.06,2.58V305.03z M272.73,211.52c-2.33,0-4.35,0.86-6.07,2.58
			c-1.72,1.72-2.58,3.69-2.58,5.92v3.95c0,1.01-0.36,1.87-1.06,2.58c-0.71,0.71-1.52,1.06-2.43,1.06h-0.15
			c-1.01,0-1.87-0.35-2.58-1.06c-0.71-0.71-1.06-1.57-1.06-2.58v-3.95c0-4.35,1.57-8.05,4.71-11.08c3.04-3.14,6.73-4.71,11.08-4.71
			c1.01,0,1.87,0.36,2.58,1.06c0.71,0.71,1.06,1.57,1.06,2.58C276.22,210.3,275.06,211.52,272.73,211.52z M373.07,211.52
			c-2.33,0-4.35,0.86-6.07,2.58c-1.72,1.72-2.58,3.69-2.58,5.92v7.44c0,1.01-0.36,1.87-1.06,2.58c-0.71,0.71-1.57,1.06-2.58,1.06
			c-1.01,0-1.87-0.35-2.58-1.06c-0.71-0.71-1.06-1.57-1.06-2.58v-7.44c0-1.31,0.15-2.58,0.46-3.8c0.1-0.3,0.2-0.61,0.3-0.91
			c0.1-0.5,0.25-0.96,0.46-1.37c0.2-0.4,0.4-0.81,0.61-1.22c0.2-0.3,0.35-0.55,0.46-0.76c0.2-0.4,0.5-0.81,0.91-1.21
			c0.3-0.4,0.61-0.81,0.91-1.22c0.2-0.2,0.4-0.4,0.61-0.61c3.04-3.14,6.73-4.71,11.08-4.71c2.43,0,3.64,1.22,3.64,3.64
			C376.56,210.3,375.4,211.52,373.07,211.52z M445.94,211.52c-2.33,0-4.35,0.86-6.07,2.58c-1.72,1.72-2.58,3.69-2.58,5.92v7.44
			c0,1.01-0.36,1.87-1.06,2.58c-0.71,0.71-1.57,1.06-2.58,1.06c-0.2,0-0.41-0.05-0.61-0.15c-0.61-0.1-1.17-0.35-1.67-0.76
			c-0.1,0-0.2-0.05-0.31-0.15c0-0.1-0.05-0.2-0.15-0.31c-0.2-0.3-0.4-0.61-0.61-0.91c-0.1-0.2-0.15-0.4-0.15-0.61
			c-0.1-0.31-0.15-0.56-0.15-0.76v-7.44c0-4.35,1.56-8.05,4.7-11.08c3.04-3.14,6.73-4.71,11.08-4.71c2.43,0,3.64,1.22,3.64,3.64
			C449.43,210.3,448.27,211.52,445.94,211.52z M518.81,211.52c-2.33,0-4.36,0.86-6.07,2.58c-1.72,1.72-2.58,3.69-2.58,5.92v7.44
			c0,1.01-0.36,1.87-1.06,2.58c-0.71,0.71-1.57,1.06-2.58,1.06s-1.87-0.35-2.58-1.06c-0.71-0.71-1.06-1.57-1.06-2.58v-7.44
			c0-4.35,1.57-8.05,4.71-11.08c3.04-3.14,6.73-4.71,11.08-4.71c2.43,0,3.64,1.22,3.64,3.64
			C522.3,210.3,521.13,211.52,518.81,211.52z"/>
		<path class="st1" d="M423.78,183.58c5.67,0,10.53-2.02,14.57-6.07c4.05-4.05,6.07-8.9,6.07-14.57c0-5.56-2.02-10.37-6.07-14.42
			c-4.05-4.15-8.91-6.22-14.57-6.22c-5.67,0-10.53,2.07-14.57,6.22c-4.05,4.05-6.07,8.86-6.07,14.42c0,5.67,2.02,10.53,6.07,14.57
			C413.25,181.56,418.11,183.58,423.78,183.58z M414.21,153.53c2.63-2.63,5.82-3.95,9.56-3.95c2.02,0,3.04,1.01,3.04,3.04
			c0,2.12-0.96,3.19-2.88,3.19c-2.03,0-3.74,0.71-5.16,2.12c-1.52,1.42-2.28,3.14-2.28,5.16c0,2.03-1.01,3.04-3.04,3.04
			c-2.13,0-3.19-1.06-3.19-3.19C410.26,159.3,411.58,156.16,414.21,153.53z"/>
	</g>
	<path class="st1" d="M1079,562.16l-127.24-24.45c-14.85,8.13-30.68,14.52-47.11,19c-18.38,4.98-37.37,7.51-56.5,7.51
		c-40.69,0-80.33-11.33-114.64-32.75c-4.53-2.8-9.03-5.84-13.37-9.01c-39.87-29.18-67.81-69.86-80.8-117.68
		c-0.42-1.52-0.83-3.15-1.24-4.74l-0.07-0.34c-7.31-29.73-8.27-59.97-2.87-89.87l0.76-4.23c10,4.92,20.77,8.39,31.92,10.22
		l-0.37,2.21c-4.11,24.59-3.15,49.38,2.81,73.67l0.34,1.31c0.25,1.01,0.51,2.04,0.8,3.06c5.49,20.15,14.11,38.9,25.65,55.72
		c11.54,16.82,25.92,31.57,42.69,43.84c3.54,2.58,7.35,5.15,11.3,7.61c29.09,18.15,62.67,27.74,97.13,27.74
		c16.16,0,32.24-2.14,47.75-6.36c15.58-4.21,30.58-10.52,44.54-18.71l5.4-3.17l79.74,15.31l-26.57-66.57l4.37-7.12
		c8.52-13.79,15.16-28.56,19.76-43.91c9.81-32.61,10.25-67.3,1.27-100.33c-1.56-5.81-3.43-11.56-5.56-17.14
		c-11.61-30.65-31.51-57.72-57.56-78.29l-1.98-1.56c7.38-8.57,13.37-18.09,17.83-28.24l3.13,2.43
		c31.57,24.5,55.65,56.94,69.65,93.82c2.48,6.52,4.69,13.33,6.59,20.24c10.6,39.13,10.09,80.15-1.52,118.66
		c-4.62,15.39-10.99,30.31-18.96,44.46L1079,562.16z"/>
	<path class="st2" d="M962.55,93.29c-14.63-36.73-49.66-60.46-89.26-60.46c-12.14,0-24.05,2.29-35.4,6.81
		c-3.58,1.42-7.07,3.07-10.45,4.91c-18.12-19.63-43.49-30.77-70.53-30.77c-12.16,0-24.07,2.29-35.4,6.8
		c-37.27,14.84-60.97,50.6-60.45,90.23c-3.72,0.99-7.39,2.2-10.97,3.62c-23.78,9.47-42.46,27.67-52.61,51.23
		c-10.14,23.57-10.52,49.65-1.04,73.42c14.4,36.16,50.27,60.45,89.27,60.45c0.86,0,1.72-0.01,2.58-0.04l34.56,86.13l249.07-99.19
		l-34.56-86.12C966.99,173.75,977.38,130.52,962.55,93.29z M671.84,142.35c2.92,4.17,5.54,7.77,8.08,11.15
		c3.41,4.51,6.52,8.43,9.5,11.98c3.18,3.76,6.65,7.75,10.51,11.48l11.19-8.38c-2.16-4.15-3.98-8.56-5.62-12.7
		c-1.56-3.97-3.14-8.34-4.82-13.34c-1.22-3.66-2.34-7.3-3.3-10.48l-2.03-10.67c-5.6-29.44,10.56-58.86,38.43-69.96
		c7.41-2.95,15.19-4.44,23.14-4.44c17.57,0,34.54,7.52,46.32,20.34c-1.16,1.81-2.32,3.71-3.33,5.88
		c-3.04,5.59-5.39,12.11-7.21,19.96c-1.47,6.48-1.96,13.52-1.46,20.98c0.53,7.33,2.06,14.07,4.54,20.04l13.57-3.62
		c-0.61-4.75-0.39-9.91,0.66-15.28c1.09-5.37,2.72-10.12,4.83-14.07c2.87-5.27,5.43-8.93,8.3-11.87l0.23-0.24l0.21-0.26
		c0.77-0.96,1.86-1.94,3.02-2.98l7.56-6.05c4.87-3.9,10.26-7.04,16.03-9.33c7.42-2.96,15.21-4.46,23.14-4.46
		c25.91,0,48.83,15.52,58.4,39.54c10.92,27.43,1.02,59.17-23.54,75.48c-3.64,2.42-7.53,4.46-11.55,6.06
		c-7.42,2.95-15.19,4.45-23.08,4.45c-5.13,0-10.28-0.64-15.32-1.91l-12.01-3.02l-6.32,10.66c-8.3,14.01-20.68,24.6-35.81,30.63
		c-8.69,3.46-17.76,5.22-26.95,5.22c-6.74,0-13.5-0.96-20.11-2.84l-11.91-3.41l-6.65,10.45c-7.11,11.17-17.36,19.66-29.64,24.55
		c-4.01,1.6-8.24,2.79-12.55,3.54l-0.31,0.06c-3.39,0.57-6.85,0.86-10.28,0.86c-25.51,0-48.97-15.89-58.4-39.54
		c-6.19-15.55-5.95-32.6,0.69-48.02c6.64-15.42,18.85-27.32,34.4-33.51C665.44,144.05,668.6,143.07,671.84,142.35z M765.1,279.04
		c5.87,1,11.81,1.5,17.71,1.5c13.38,0,26.58-2.55,39.21-7.58c18.21-7.25,33.86-19.2,45.52-34.71c3.88,0.48,7.8,0.72,11.68,0.72
		c12.02,0,23.84-2.26,35.14-6.73l14.45,35.64L741.42,342.5l-14.45-35.64C741.85,300.9,754.95,291.33,765.1,279.04z"/>
	<g>
		<circle class="st1" cx="801.66" cy="400.14" r="18.34"/>
		
			<ellipse transform="matrix(0.9279 -0.3728 0.3728 0.9279 -76.8813 350.1736)" class="st1" cx="867.02" cy="373.88" rx="18.34" ry="18.34"/>
		<circle class="st1" cx="932.39" cy="347.62" r="18.34"/>
	</g>
	<path class="st2" d="M604.95,413.22H491.42c-6.85,0-12.39-5.54-12.39-12.39s5.54-12.39,12.39-12.39h108.19
		c1.04,6.39,2.34,12.76,3.88,19.1l0.12,0.53l0.41,1.63C604.33,410.88,604.63,412.06,604.95,413.22z"/>
	<path class="st2" d="M596.61,360.31h-25.14c-6.85,0-12.39-5.54-12.39-12.39c0-6.85,5.54-12.39,12.39-12.39h25.16
		C596.2,343.8,596.2,352.06,596.61,360.31z"/>
	<path class="st2" d="M658.89,514.27h-57.56c-6.85,0-12.39-5.54-12.39-12.39c0-6.85,5.54-12.39,12.39-12.39h38.33
		C645.52,498.14,651.95,506.41,658.89,514.27z"/>
	<path class="st2" d="M719.71,564.5H568.78c-6.83,0-12.39-5.54-12.39-12.39s5.56-12.39,12.39-12.39h116.11
		c4.62,3.93,9.42,7.7,14.38,11.33c5.17,3.77,10.41,7.31,15.58,10.5C716.45,562.55,718.08,563.55,719.71,564.5z"/>
	<path class="st2" d="M417.79,564.5h-35.22c-6.84,0-12.39-5.55-12.39-12.39s5.55-12.39,12.39-12.39h35.22
		c6.84,0,12.39,5.55,12.39,12.39S424.64,564.5,417.79,564.5z"/>
	<path class="st2" d="M154.98,564.5h-35.22c-6.84,0-12.39-5.55-12.39-12.39s5.55-12.39,12.39-12.39h35.22
		c6.84,0,12.39,5.55,12.39,12.39S161.83,564.5,154.98,564.5z"/>
	<path class="st2" d="M81.48,564.5H13.39C6.55,564.5,1,558.95,1,552.11s5.55-12.39,12.39-12.39h68.08c6.84,0,12.39,5.55,12.39,12.39
		S88.32,564.5,81.48,564.5z"/>
	<path class="st2" d="M535.76,564.5H450c-6.84,0-12.39-5.55-12.39-12.39s5.55-12.39,12.39-12.39h85.75
		c6.84,0,12.39,5.55,12.39,12.39S542.6,564.5,535.76,564.5z"/>
	<path class="st2" d="M347.62,564.5h-157.4c-6.84,0-12.39-5.55-12.39-12.39s5.55-12.39,12.39-12.39h157.4
		c6.84,0,12.39,5.55,12.39,12.39S354.47,564.5,347.62,564.5z"/>
	<path class="st2" d="M367.52,175.33H193.76c-6.84,0-12.39-5.55-12.39-12.39c0-6.84,5.55-12.39,12.39-12.39h173.76
		c6.84,0,12.39,5.55,12.39,12.39C379.92,169.78,374.37,175.33,367.52,175.33z"/>
	<path class="st2" d="M76.78,175.33H13.39C6.55,175.33,1,169.78,1,162.94c0-6.84,5.55-12.39,12.39-12.39h63.38
		c6.84,0,12.39,5.55,12.39,12.39C89.17,169.78,83.62,175.33,76.78,175.33z"/>
	<path class="st2" d="M565.71,514.28H407.13c-6.84,0-12.39-5.55-12.39-12.39c0-6.84,5.55-12.39,12.39-12.39h158.58
		c6.84,0,12.39,5.55,12.39,12.39C578.1,508.73,572.56,514.28,565.71,514.28z"/>
	<path class="st2" d="M625.64,466.12h-110.9c-6.85,0-12.39-5.54-12.39-12.39c0-6.85,5.54-12.39,12.39-12.39h99.52
		C617.6,449.85,621.41,458.11,625.64,466.12z"/>
	<path class="st2" d="M483.49,466.13h-76.36c-6.84,0-12.39-5.55-12.39-12.39s5.55-12.39,12.39-12.39h76.36
		c6.84,0,12.39,5.55,12.39,12.39S490.33,466.13,483.49,466.13z"/>
	<path class="st2" d="M458.01,413.21h-98.63c-6.84,0-12.39-5.55-12.39-12.39s5.55-12.39,12.39-12.39h98.63
		c6.84,0,12.39,5.55,12.39,12.39S464.86,413.21,458.01,413.21z"/>
	<path class="st2" d="M190.03,413.21H13.39C6.55,413.21,1,407.66,1,400.82s5.55-12.39,12.39-12.39h176.63
		c6.84,0,12.39,5.55,12.39,12.39S196.87,413.21,190.03,413.21z"/>
</g>
</svg>
