<svg xmlns="http://www.w3.org/2000/svg" width="102.624" height="36.178" viewBox="0 0 102.624 36.178">
  <g id="Group_40" data-name="Group 40" transform="translate(-300.837 -423.455)">
    <g id="Group_40-2" data-name="Group 40" transform="translate(367.283 423.455)">
      <rect id="Rectangle_6" data-name="Rectangle 6" width="36.178" height="36.178" rx="4" fill="#ff6b01"/>
    </g>
    <g id="Group_62" data-name="Group 62" transform="translate(300.837 427.174)">
      <g id="Group_42" data-name="Group 42" transform="translate(24.503 25.505)">
        <g id="Group_41" data-name="Group 41">
          <path id="Path_27" data-name="Path 27" d="M427.5,550.662a1.382,1.382,0,0,1,1.363,1.659c-.047.234-.1.464-.157.692a.707.707,0,0,1-.536.381c-.549.023-1.1.031-1.659.035a1.379,1.379,0,0,1-1.364-1.633h0a1.38,1.38,0,0,1,1.345-1.126Z" transform="translate(-425.128 -550.662)" fill="#282929"/>
        </g>
      </g>
      <g id="Group_44" data-name="Group 44" transform="translate(48.569)">
        <g id="Group_43" data-name="Group 43">
          <path id="Path_28" data-name="Path 28" d="M544.67,426.494a1.382,1.382,0,0,1,1.364,1.659c-.048.234-.1.464-.157.692a.708.708,0,0,1-.536.382c-.549.022-1.1.031-1.659.035a1.379,1.379,0,0,1-1.364-1.633h0a1.379,1.379,0,0,1,1.345-1.126Z" transform="translate(-542.294 -426.494)" fill="#282929"/>
        </g>
      </g>
      <g id="Group_46" data-name="Group 46" transform="translate(29.473 25.517)">
        <g id="Group_45" data-name="Group 45">
          <path id="Path_29" data-name="Path 29" d="M449.347,552l.064-.341a1.136,1.136,0,0,1,1.106-.927l1.525-.013a1.136,1.136,0,0,1,1.126,1.348l0,.026a1.6,1.6,0,0,1-1.48,1.242q-.6.009-1.214.011A1.137,1.137,0,0,1,449.347,552Z" transform="translate(-449.327 -550.723)" fill="#282929"/>
        </g>
      </g>
      <g id="Group_48" data-name="Group 48" transform="translate(53.749 2.2)">
        <g id="Group_47" data-name="Group 47">
          <path id="Path_30" data-name="Path 30" d="M567.533,438.487l.064-.341a1.136,1.136,0,0,1,1.106-.927l1.525-.014a1.137,1.137,0,0,1,1.127,1.348l0,.026a1.6,1.6,0,0,1-1.48,1.242q-.6.009-1.214.011A1.136,1.136,0,0,1,567.533,438.487Z" transform="translate(-567.513 -437.205)" fill="#282929"/>
        </g>
      </g>
      <g id="Group_50" data-name="Group 50" transform="translate(43.768 2.062)">
        <g id="Group_49" data-name="Group 49">
          <path id="Path_31" data-name="Path 31" d="M518.939,437.813l.064-.341a1.136,1.136,0,0,1,1.106-.927l1.525-.014a1.136,1.136,0,0,1,1.127,1.348l0,.026a1.6,1.6,0,0,1-1.48,1.242q-.6.008-1.214.011A1.137,1.137,0,0,1,518.939,437.813Z" transform="translate(-518.919 -436.531)" fill="#282929"/>
        </g>
      </g>
      <g id="Group_52" data-name="Group 52" transform="translate(16.734 2.2)">
        <g id="Group_51" data-name="Group 51">
          <path id="Path_32" data-name="Path 32" d="M387.324,438.487l.064-.341a1.136,1.136,0,0,1,1.106-.927l1.525-.014a1.136,1.136,0,0,1,1.126,1.348l0,.026a1.6,1.6,0,0,1-1.48,1.242c-.4.006-.806.009-1.214.011A1.136,1.136,0,0,1,387.324,438.487Z" transform="translate(-387.304 -437.205)" fill="#282929"/>
        </g>
      </g>
      <g id="Group_54" data-name="Group 54" transform="translate(36.295 22.348)">
        <g id="Group_53" data-name="Group 53">
          <path id="Path_33" data-name="Path 33" d="M487.093,547.168v.429h.931v1h-1.053a2.09,2.09,0,0,1-.761,1.142,2.244,2.244,0,0,1-1.363.425.131.131,0,0,0-.022,0,.037.037,0,0,1-.011,0,.037.037,0,0,0-.011,0,.126.126,0,0,1-.026,0,2.157,2.157,0,0,1-1.6-.643,2.477,2.477,0,0,1-.628-1.693h-.007v-.284h.007V547.5a.68.68,0,0,1,.192-.48.623.623,0,0,1,.469-.207h.473v1c.033.9.41,1.349,1.134,1.36.758-.011,1.135-.491,1.135-1.449v-1.641h.477a.623.623,0,0,1,.469.207.68.68,0,0,1,.192.48v.041Zm-1.8-1.079h-1.005v-.809h.517a.486.486,0,0,1,.37.126.5.5,0,0,1,.118.37Z" transform="translate(-482.537 -543.229)" fill="#282929"/>
          <path id="Path_34" data-name="Path 34" d="M507.986,550.341h.318v0q1.015-.094,1.013-1.452v-.159h1.138v.159a2.556,2.556,0,0,1-.58,1.748,2.12,2.12,0,0,1-1.57.695v0h-.318Zm1.127,2.531H508.1v-.813h.521a.432.432,0,0,1,.488.5Zm1.249,0h-1.009v-.813h.521a.433.433,0,0,1,.488.5Z" transform="translate(-502.759 -545.974)" fill="#282929"/>
          <path id="Path_35" data-name="Path 35" d="M527.432,539.664h.905v1h-4.73v-.4a.558.558,0,0,1,.185-.421.613.613,0,0,1,.432-.174h.018v-.007h.373v-2.8h0v-.022a.61.61,0,0,1,.174-.429.556.556,0,0,1,.425-.188h.425v3.444h.695v-3.8a.564.564,0,0,1,.159-.4.516.516,0,0,1,.392-.174h.543Z" transform="translate(-515.171 -535.296)" fill="#282929"/>
          <path id="Path_36" data-name="Path 36" d="M545.366,545.339h.318v0q1.014-.094,1.012-1.452v-.159h1.138v.159a2.556,2.556,0,0,1-.58,1.748,2.119,2.119,0,0,1-1.57.695v0h-.318Zm2.465-2.088h-1.005v-.813h.517a.508.508,0,0,1,.373.129.5.5,0,0,1,.115.366Z" transform="translate(-532.461 -540.971)" fill="#282929"/>
          <path id="Path_37" data-name="Path 37" d="M564.032,547.61a1.48,1.48,0,0,1,.181.577,4.269,4.269,0,0,1,.033.606,2.512,2.512,0,0,1-.709,1.748,2.181,2.181,0,0,1-1.7.573c-.011,0-.018,0-.022,0l.052-.987a.127.127,0,0,0,.022,0,1.146,1.146,0,0,0,1.049-.454l-.007.007c-.1-.026-.189-.044-.281-.063a1.64,1.64,0,0,1-.233-.041.817.817,0,0,0-.174-.022,1.891,1.891,0,0,1-.9-.392,1.187,1.187,0,0,1-.358-.972,1.282,1.282,0,0,1,.392-1.049,1.4,1.4,0,0,1,.909-.314,5.058,5.058,0,0,1,.6.037,1.726,1.726,0,0,1,.647.222A1.429,1.429,0,0,1,564.032,547.61Zm-.732.99a.921.921,0,0,0-.233-.661.842.842,0,0,0-.636-.24.543.543,0,0,0-.377.118.512.512,0,0,0-.129.362.642.642,0,0,0,.1.332.851.851,0,0,0,.377.2s.111.03.333.074a2.959,2.959,0,0,1,.565.2Z" transform="translate(-544.873 -544.458)" fill="#282929"/>
          <path id="Path_38" data-name="Path 38" d="M581.9,535.3v4.789a.571.571,0,0,1-.162.4.512.512,0,0,1-.388.17H580.8v-4.789a.564.564,0,0,1,.159-.4.516.516,0,0,1,.392-.174Z" transform="translate(-560.618 -535.296)" fill="#282929"/>
        </g>
      </g>
      <g id="Group_61" data-name="Group 61" transform="translate(0 7.102)">
        <g id="Group_56" data-name="Group 56" transform="translate(0 5.235)">
          <g id="Group_55" data-name="Group 55">
            <path id="Path_39" data-name="Path 39" d="M317.519,503.6a10.5,10.5,0,0,1-4.965-1.237,12.162,12.162,0,0,1-5.065-4.839,14.113,14.113,0,0,1-1.651-6.789,15.571,15.571,0,0,1,.252-2.558c.014-.093.067-.385.161-.892a.885.885,0,0,1,1.754.114c.021.4.02.432.019.46-.2,4.582,1.387,7.708,4.852,9.557a12.486,12.486,0,0,0,5.931,1.515,13.28,13.28,0,0,0,2.242-.195,9.19,9.19,0,0,0,4.51-1.687,3.786,3.786,0,0,0,1.277-2.265l.09-.633,2.452,1.231-.136.382a11.392,11.392,0,0,1-6.7,6.777A13.318,13.318,0,0,1,317.519,503.6Z" transform="translate(-305.837 -486.557)" fill="#282929"/>
          </g>
        </g>
        <g id="Group_58" data-name="Group 58" transform="translate(0.459 5.695)">
          <g id="Group_57" data-name="Group 57">
            <path id="Path_40" data-name="Path 40" d="M327.627,499.176a9.567,9.567,0,0,1-4.725,1.785,13.747,13.747,0,0,1-2.32.2,12.943,12.943,0,0,1-6.148-1.569c-3.637-1.941-5.3-5.207-5.094-9.983,0-.025-.006-.18-.018-.415a.426.426,0,0,0-.844-.054c-.083.446-.144.783-.159.878a15.228,15.228,0,0,0-.246,2.484,13.663,13.663,0,0,0,1.593,6.57,11.713,11.713,0,0,0,4.879,4.656,10.043,10.043,0,0,0,4.75,1.183,12.859,12.859,0,0,0,4.852-1.024,10.918,10.918,0,0,0,6.437-6.506l-1.518-.762A4.217,4.217,0,0,1,327.627,499.176Z" transform="translate(-308.073 -488.793)" fill="#282929"/>
          </g>
        </g>
        <g id="Group_60" data-name="Group 60" transform="translate(12.012)">
          <g id="Group_59" data-name="Group 59">
            <path id="Path_41" data-name="Path 41" d="M411.263,461.082l-.065,0c-.237-.006-.482-.012-.722-.012-1.606,0-3.149.305-3.563,2.52q-.221,1.182-.436,2.365c-.3,1.619-.6,3.293-.931,4.934a3.281,3.281,0,0,1-.552,1.261,1.87,1.87,0,0,1-1.446.77,1.027,1.027,0,0,1-.437-.088c-.181-.085-.73-.342-.511-1.748.006-.037.013-.076.02-.114l.015-.087q.143-.827.288-1.653c.25-1.423.508-2.9.74-4.347.023-.141.043-.283.063-.425.035-.248.068-.483.115-.714a2.014,2.014,0,0,0-1.976-2.415H401.8a2.008,2.008,0,0,0-2,2,6.525,6.525,0,0,1-.13,1.037c-.285,1.655-.608,3.334-.92,4.957l-.072.377c-.13.681-.265,1.385-.459,2.051a2,2,0,0,1-1.7,1.541,1.411,1.411,0,0,1-.216.017.842.842,0,0,1-.892-.824,4.9,4.9,0,0,1,.08-1.373c.175-1.008.363-2.031.544-3.021.212-1.154.431-2.347.631-3.525q.021-.125.042-.25a3.9,3.9,0,0,1,.673-1.957c.234-.282.7-1-.644-1.037-.289-.009-.587-.022-.882-.022-.836,0-2.795,0-3.182,2.075-.2,1.087-.4,2.193-.59,3.263-.293,1.645-.6,3.346-.927,5.011a2.082,2.082,0,0,1-1.612,1.535.627.627,0,0,0-.119.021,3.105,3.105,0,0,1-.757.061c-.478,0-.953-.039-1.11-.058l0-.021-.06,0-.015-.007-.083.011-.272.011h-.055a.89.89,0,0,1-.93-.874,2.244,2.244,0,0,1,0-.728c.328-1.867.673-3.765,1.006-5.6l.288-1.585a3.779,3.779,0,0,1,.764-2.029.666.666,0,0,0,.019-.83.941.941,0,0,0-.691-.195c-.285-.017-.581-.034-.872-.034-1.291,0-2.673.329-3.129,2.765-.115.613-.254,1.235-.389,1.836-.109.483-.221.983-.32,1.479-.121.609-.237,1.229-.349,1.829-.147.79-.3,1.607-.467,2.405a2.181,2.181,0,0,1-1.68,1.63,14.545,14.545,0,0,1-1.709.138,2.005,2.005,0,0,1-.659-.068.424.424,0,0,0-.057-.036.439.439,0,0,0-.248-.082h-.026c-.285-.091-.826-.4-.535-1.995.144-.793.325-1.585.483-2.266a8.486,8.486,0,0,0,.056-3.94,4.234,4.234,0,0,0-2.923-3.363,10.649,10.649,0,0,0-2.73-.413l-.032,0c-.076,0-.152,0-.227,0a6.422,6.422,0,0,0-4.473,1.827l-.124.12c-1.714,1.481-2.6,3.531-2.781,6.451-.164,2.627.915,4.394,3.208,5.252a6.642,6.642,0,0,0,2.338.424,7.321,7.321,0,0,0,1.838-.242,8.035,8.035,0,0,0,2.072-.846,3.162,3.162,0,0,1-.031.359l1.518.762q.054-.152.1-.306a7.3,7.3,0,0,0,2.126.391c.164.007.316.011.463.011.108,0,.213,0,.315-.006s.7.023,1.272.023c.363,0,.644-.008.834-.024a4.862,4.862,0,0,0,2.38-.651,1.835,1.835,0,0,1,.83-.271.39.39,0,0,1,.14.02,9.406,9.406,0,0,0,2.731.647l-.006.032.407.011.185,0c.116,0,.236,0,.358-.009.2.022.484.033.838.033.62,0,1.25-.033,1.275-.034a8.053,8.053,0,0,0,2.918-.73.35.35,0,0,1,.13-.02.551.551,0,0,1,.213.041,7.7,7.7,0,0,0,6.982-.043.7.7,0,0,1,.293-.054.891.891,0,0,1,.318.054,7.567,7.567,0,0,0,8.226-1.5,3.315,3.315,0,0,0,1.015-1.733c.389-1.8.708-3.643,1.017-5.426q.08-.459.159-.917c.022-.128.043-.256.064-.384a4.285,4.285,0,0,1,.914-2.413.47.47,0,0,0,.09-.149A.65.65,0,0,0,411.263,461.082Zm-36.536,5.891a5.1,5.1,0,0,1-1.606,3.6,8.153,8.153,0,0,1-2.41,1.507,2.717,2.717,0,0,1-1.054.214,1.946,1.946,0,0,1-1.688-.791,4.328,4.328,0,0,1-.234-3.6c.157-.227.31-.458.457-.682a14.947,14.947,0,0,1,1.175-1.617,4.565,4.565,0,0,1,1.442-.95,3.66,3.66,0,0,1,1.59-.365,2.215,2.215,0,0,1,2.044.992A3.286,3.286,0,0,1,374.728,466.974Z" transform="translate(-364.319 -461.069)" fill="#282929"/>
          </g>
        </g>
      </g>
    </g>
    <g id="Group_68" data-name="Group 68" transform="translate(373.408 429.137)">
      <g id="Group_63" data-name="Group 63" transform="translate(8.2 17.209)">
        <path id="Path_42" data-name="Path 42" d="M678.352,516.748a4.245,4.245,0,0,1-4.011-2.857l1.516-.523a2.64,2.64,0,0,0,4.99,0l1.516.523A4.245,4.245,0,0,1,678.352,516.748Z" transform="translate(-674.341 -513.368)" fill="#fff"/>
      </g>
      <g id="Group_64" data-name="Group 64" transform="translate(5.154 10.841)">
        <path id="Path_43" data-name="Path 43" d="M677.028,493.989a14.516,14.516,0,0,0-5-1.385c-.451-.042-.909-.063-1.363-.063a14.524,14.524,0,0,0-6.361,1.448l-.7-1.444a16.112,16.112,0,0,1,7.057-1.607c.5,0,1.011.023,1.51.069a16.122,16.122,0,0,1,5.548,1.538Z" transform="translate(-663.61 -490.937)" fill="#fff"/>
      </g>
      <g id="Group_65" data-name="Group 65" transform="translate(4.717 17.404)">
        <path id="Path_44" data-name="Path 44" d="M662.874,515.659l-.8-.8h.8v0h0Z" transform="translate(-662.072 -514.056)" fill="#fff"/>
      </g>
      <g id="Group_67" data-name="Group 67">
        <g id="Group_66" data-name="Group 66">
          <path id="Path_45" data-name="Path 45" d="M657.666,477.561a7.6,7.6,0,0,1-7.355-5.806h-.138v-.747a7.671,7.671,0,0,1-.028-1.775v-.291l.035-.036.012-.073c.035-.436.045-1.661.026-1.9a9.96,9.96,0,0,0-.923-3.476,24.48,24.48,0,0,0-3.223-3.841,1.8,1.8,0,0,1-.5-2,7.6,7.6,0,0,1,7.068-4.871,7.519,7.519,0,0,1,3.912,1.09,11.681,11.681,0,0,1,12.407,3.61,1.8,1.8,0,0,1-.228,2.545,10.155,10.155,0,0,0-2.693,3.467,9.972,9.972,0,0,0-.956,4.287,10.331,10.331,0,0,0,.057,1.078l.014.08.035.036v.292a7.673,7.673,0,0,1,.039.768,7.558,7.558,0,0,1-7.56,7.561Zm-5.907-6.785.009.065A5.957,5.957,0,0,0,663.623,470c0-.193-.009-.387-.028-.577l-.006-.055c-.009-.067-.018-.134-.026-.2l-.015-.125a11.934,11.934,0,0,1-.071-1.3,11.567,11.567,0,0,1,1.109-4.971,11.768,11.768,0,0,1,3.121-4.018.19.19,0,0,0,.07-.134.187.187,0,0,0-.044-.141,10.057,10.057,0,0,0-15.354-.03l-1.221-1.039a11.713,11.713,0,0,1,3.409-2.743,5.967,5.967,0,0,0-7.5,3.52.2.2,0,0,0,.051.218,24.3,24.3,0,0,1,3.623,4.368,11.569,11.569,0,0,1,1.071,4.033c.026.326.016,1.721-.033,2.231l-.005.053v.01l-.008.065c-.009.07-.018.14-.027.21a6.065,6.065,0,0,0,.018,1.4Z" transform="translate(-645.454 -452.748)" fill="#fff"/>
        </g>
      </g>
    </g>
  </g>
</svg>
