<svg xmlns="http://www.w3.org/2000/svg" width="64.729" height="66.986" viewBox="0 0 64.729 66.986">
  <g id="Group_34" data-name="Group 34" transform="translate(-43.098 -399.007)">
    <g id="Group_28" data-name="Group 28" transform="translate(88.5 419.25)">
      <path id="Path_26" data-name="Path 26" d="M4.657,14.15a.308.308,0,0,1-.293-.4L5.532,10.14l-2.919-2.4a.308.308,0,0,1,.173-.545l3.933-.286L8.062,2.959a.309.309,0,0,1,.291-.209h0a.309.309,0,0,1,.291.208L10,6.905l3.923.286a.308.308,0,0,1,.17.548L11.1,10.132l1.238,3.61a.308.308,0,0,1-.433.373l-3.556-1.83L4.8,14.115A.312.312,0,0,1,4.657,14.15ZM3.6,7.75,6.084,9.8a.306.306,0,0,1,.1.333l-1,3.1,3.032-1.561a.308.308,0,0,1,.282,0l3.016,1.552-1.06-3.092a.309.309,0,0,1,.1-.341l2.544-2.037L9.752,7.505A.309.309,0,0,1,9.482,7.3L8.355,4.011,7.237,7.3a.311.311,0,0,1-.27.208Z" transform="translate(-22.354 -9.45)" fill="#c7c7c7" stroke="#ff6b01" stroke-width="1.5"/>
    </g>
    <g id="Group_30" data-name="Group 30" transform="translate(-602.276 -53.741)">
      <path id="Path_16" data-name="Path 16" d="M677.011,514.289a9.1,9.1,0,0,0,17.194,0" transform="translate(-7.178 -14.667)" fill="none" stroke="#ff6b01" stroke-miterlimit="10" stroke-width="5.649"/>
      <path id="Path_17" data-name="Path 17" d="M700.3,497.8a40.572,40.572,0,0,0-13.934-3.863q-1.876-.173-3.8-.175a40.7,40.7,0,0,0-17.731,4.037h0" transform="translate(-4.137 -9.539)" fill="none" stroke="#ff6b01" stroke-miterlimit="10" stroke-width="5.649"/>
      <path id="Path_18" data-name="Path 18" d="M664.9,516.88h0" transform="translate(-4.151 -15.314)" fill="none" stroke="#ff6b01" stroke-miterlimit="10" stroke-width="5.649"/>
      <g id="Group_16" data-name="Group 16" transform="translate(648.277 455.572)">
        <path id="Path_19" data-name="Path 19" d="M662.846,467.154a28.712,28.712,0,0,1,43.811.086,2.634,2.634,0,0,1-.335,3.726,28.648,28.648,0,0,0-10.413,22.124,29.324,29.324,0,0,0,.187,3.3v.011c.029.243.059.484.092.725v0l-.1-.741v.011q.054.361.092.725v0a18.044,18.044,0,0,1,.1,1.92,17.862,17.862,0,0,1-35.546,2.518h0a18.122,18.122,0,0,1-.073-4.437h0v0c.033-.242.065-.482.093-.725v-.011c.123-1.081.156-4.846.094-5.609a28.49,28.49,0,0,0-2.637-9.92h0a64,64,0,0,0-9.047-10.846,2.636,2.636,0,0,1-.725-2.93,17.869,17.869,0,0,1,26.745-8.417" transform="translate(-648.277 -455.572)" fill="none" stroke="#ff6b01" stroke-miterlimit="10" stroke-width="5.649"/>
      </g>
    </g>
  </g>
</svg>
