<?xml version="1.0" encoding="utf-8"?>
<!-- Generator: Adobe Illustrator 24.0.0, SVG Export Plug-In . SVG Version: 6.00 Build 0)  -->
<svg version="1.1" id="Layer_1" xmlns="http://www.w3.org/2000/svg" xmlns:xlink="http://www.w3.org/1999/xlink" x="0px" y="0px"
	 viewBox="0 0 1080 1080" style="enable-background:new 0 0 1080 1080;" xml:space="preserve">
<style type="text/css">
	.st0{fill:#FFFFFF;}
	.st1{fill:#983980;}
	.st2{fill:#EE783C;}
	.st3{fill:url(#SVGID_1_);}
	.st4{opacity:0.2;fill:#983980;}
	.st5{opacity:0.2;}
	.st6{opacity:0.2;fill:#EE783C;}
	.st7{fill:url(#SVGID_2_);}
	.st8{fill:url(#SVGID_3_);}
	.st9{fill:url(#SVGID_4_);}
	.st10{fill:url(#SVGID_5_);}
</style>
<g>
	<path class="st0" d="M834.01,1075H245.99C113.44,1075,5,966.56,5,834.01V245.99C5,113.44,113.44,5,245.99,5h588.03
		C966.56,5,1075,113.44,1075,245.99v588.03C1075,966.56,966.56,1075,834.01,1075z"/>
	<g>
		<path class="st2" d="M925.58,970.44l-200.5-38.53c-23.41,12.8-48.35,22.88-74.24,29.93c-28.96,7.84-58.89,11.83-89.02,11.83
			c-64.11,0-126.57-17.86-180.64-51.61c-7.14-4.41-14.23-9.21-21.06-14.2c-62.83-45.98-106.85-110.09-127.33-185.44
			c-0.67-2.4-1.31-4.97-1.95-7.48l-0.11-0.53c-11.52-46.84-13.03-94.49-4.52-141.61l1.2-6.67c15.76,7.76,32.72,13.22,50.3,16.1
			l-0.59,3.49c-6.47,38.75-4.97,77.81,4.44,116.08l0.53,2.06c0.39,1.59,0.81,3.21,1.26,4.83c8.65,31.75,22.23,61.29,40.42,87.8
			c18.19,26.5,40.84,49.74,67.26,69.08c5.58,4.07,11.58,8.12,17.8,12c45.84,28.6,98.76,43.72,153.05,43.72
			c25.47,0,50.8-3.38,75.24-10.02c24.55-6.64,48.18-16.57,70.19-29.49l8.51-4.99l125.65,24.13l-41.88-104.9l6.89-11.22
			c13.42-21.73,23.88-45,31.13-69.19c15.46-51.39,16.15-106.04,2.01-158.1c-2.46-9.15-5.41-18.22-8.76-27.01
			c-18.3-48.29-49.66-90.95-90.7-123.37l-3.12-2.45c11.63-13.5,21.06-28.51,28.09-44.5l4.94,3.82
			c49.74,38.61,87.68,89.72,109.75,147.83c3.91,10.27,7.39,21.01,10.38,31.89c16.71,61.66,15.9,126.29-2.4,186.97
			c-7.28,24.24-17.32,47.76-29.88,70.05L925.58,970.44z"/>
		<path class="st2" d="M742.08,231.61c-23.05-57.88-78.25-95.27-140.65-95.27c-19.13,0-37.89,3.61-55.78,10.74
			c-5.63,2.24-11.15,4.83-16.47,7.74c-28.55-30.93-68.53-48.48-111.13-48.48c-19.17,0-37.93,3.6-55.77,10.71
			c-58.73,23.39-96.08,79.74-95.25,142.17c-5.86,1.55-11.64,3.46-17.28,5.7c-37.47,14.92-66.91,43.59-82.89,80.73
			s-16.57,78.23-1.65,115.7c22.69,56.98,79.22,95.26,140.67,95.26c1.35,0,2.71-0.02,4.07-0.06l54.46,135.71l392.48-156.3
			l-54.46-135.71C749.08,358.39,765.44,290.28,742.08,231.61z M283.99,308.91c4.6,6.56,8.72,12.25,12.74,17.56
			c5.38,7.11,10.27,13.28,14.97,18.87c5,5.93,10.48,12.22,16.57,18.08l17.63-13.2c-3.4-6.53-6.27-13.49-8.85-20.01
			c-2.47-6.26-4.95-13.15-7.59-21.03c-1.92-5.77-3.69-11.51-5.2-16.52l-3.2-16.81c-8.82-46.39,16.64-92.75,60.56-110.24
			c11.67-4.65,23.93-7,36.46-7c27.69,0,54.42,11.85,72.98,32.05c-1.82,2.86-3.66,5.84-5.24,9.27c-4.78,8.81-8.5,19.08-11.36,31.45
			c-2.31,10.21-3.09,21.31-2.3,33.06c0.84,11.55,3.24,22.18,7.15,31.58l21.38-5.7c-0.96-7.49-0.61-15.62,1.03-24.08
			c1.71-8.46,4.28-15.95,7.61-22.17c4.52-8.3,8.55-14.07,13.07-18.7l0.37-0.37l0.33-0.41c1.22-1.51,2.93-3.06,4.75-4.69l11.91-9.53
			c7.67-6.14,16.17-11.09,25.26-14.7c11.7-4.66,23.96-7.02,36.46-7.02c40.83,0,76.95,24.46,92.02,62.31
			c17.21,43.22,1.61,93.24-37.1,118.93c-5.74,3.81-11.87,7.03-18.2,9.55c-11.7,4.66-23.93,7.02-36.36,7.02
			c-8.08,0-16.2-1.01-24.14-3.01l-18.93-4.76l-9.95,16.8c-13.07,22.07-32.58,38.76-56.43,48.26c-13.7,5.46-27.99,8.23-42.46,8.23
			c-10.62,0-21.28-1.51-31.68-4.48l-18.77-5.37l-10.48,16.47c-11.2,17.6-27.35,30.98-46.7,38.68c-6.33,2.52-12.98,4.4-19.78,5.57
			l-0.49,0.09c-5.34,0.9-10.79,1.36-16.2,1.36c-40.19,0-77.17-25.04-92.02-62.31c-9.76-24.5-9.37-51.37,1.09-75.67
			c10.46-24.3,29.71-43.05,54.21-52.81C273.9,311.59,278.89,310.06,283.99,308.91z M430.95,524.31c9.25,1.57,18.61,2.37,27.91,2.37
			c21.09,0,41.88-4.02,61.79-11.95c28.69-11.42,53.35-30.26,71.72-54.7c6.12,0.75,12.29,1.14,18.41,1.14
			c18.95,0,37.57-3.57,55.37-10.61l22.77,56.16L393.63,624.31l-22.77-56.16C394.32,558.75,414.96,543.67,430.95,524.31z"/>
		<g>
			<circle class="st2" cx="488.56" cy="715.14" r="28.9"/>
			
				<ellipse transform="matrix(0.9279 -0.3728 0.3728 0.9279 -208.531 269.0974)" class="st2" cx="591.56" cy="673.76" rx="28.9" ry="28.9"/>
			<circle class="st2" cx="694.55" cy="632.38" r="28.9"/>
		</g>
	</g>
</g>
</svg>
