<svg xmlns="http://www.w3.org/2000/svg" width="112" height="111" viewBox="0 0 112 111">
  <g id="Group_11356" data-name="Group 11356" transform="translate(-240.5 -285)">
    <g id="Rectangle_1219" data-name="Rectangle 1219" transform="translate(240.5 285)" fill="#fff" stroke="#ececec" stroke-width="1">
      <rect width="112" height="111" stroke="none"/>
      <rect x="0.5" y="0.5" width="111" height="110" fill="none"/>
    </g>
    <g id="Group_78" data-name="Group 78" transform="translate(262.016 305.668)">
      <g id="Group_76" data-name="Group 76">
        <g id="Icon_ionic-ios-radio-button-on" data-name="Icon ionic-ios-radio-button-on">
          <path id="Path_46" data-name="Path 46" d="M37.86,8.017A29.847,29.847,0,0,1,58.965,58.965,29.847,29.847,0,0,1,16.754,16.754,29.645,29.645,0,0,1,37.86,8.017m0-4.642A34.485,34.485,0,1,0,72.344,37.86,34.479,34.479,0,0,0,37.86,3.375Z" transform="translate(-3.375 -3.375)" fill="#282929"/>
        </g>
      </g>
      <g id="Group_113" data-name="Group 113" transform="translate(14.727 14.012)">
        <path id="Path_16" data-name="Path 16" d="M681.228,519.4a7.288,7.288,0,0,1-6.887-4.906l3.264-1.127a3.834,3.834,0,0,0,7.246,0l3.264,1.127A7.287,7.287,0,0,1,681.228,519.4Z" transform="translate(-661.071 -485.279)" fill="#282929"/>
        <path id="Path_17" data-name="Path 17" d="M685.285,496.686a23.023,23.023,0,0,0-7.925-2.2q-1.069-.1-2.162-.1a23.029,23.029,0,0,0-10.088,2.3l-1.5-3.11a26.455,26.455,0,0,1,11.588-2.639q1.254,0,2.479.114a26.463,26.463,0,0,1,9.109,2.525Z" transform="translate(-655.041 -473.424)" fill="#282929"/>
        <g id="Group_16" data-name="Group 16">
          <path id="Path_19" data-name="Path 19" d="M665.611,493.693a12.651,12.651,0,0,1-12.572-14,29.694,29.694,0,0,0,.111-3.559,15.668,15.668,0,0,0-1.452-5.466,38.961,38.961,0,0,0-5.1-6.063,3.348,3.348,0,0,1-.926-3.709,12.716,12.716,0,0,1,11.821-8.147,12.573,12.573,0,0,1,6.376,1.723,19.3,19.3,0,0,1,20.314,6.021,3.337,3.337,0,0,1-.423,4.722,15.959,15.959,0,0,0-4.236,5.452,15.681,15.681,0,0,0-1.5,6.741,16.237,16.237,0,0,0,.1,1.821h0a14.39,14.39,0,0,1,.132,1.82,12.639,12.639,0,0,1-12.644,12.644ZM657.493,456.2a9.245,9.245,0,0,0-8.594,5.922,36.082,36.082,0,0,1,5.922,7.071,19.114,19.114,0,0,1,1.771,6.663c.041.51.019,3.035-.063,3.761a11.189,11.189,0,0,0-.109,1.431,9.344,9.344,0,0,0,.09,1.3,9.2,9.2,0,0,0,13.875,6.557,9.134,9.134,0,0,0,4.417-7.856,9.279,9.279,0,0,0-.049-.958h0c0-.01,0-.021,0-.031h0a21.239,21.239,0,0,1-.183-2.652,19.11,19.11,0,0,1,1.833-8.214,19.446,19.446,0,0,1,5.157-6.64,16.265,16.265,0,0,0-12.106-5.452,15.787,15.787,0,0,0-12.053,5.571l-2.629-2.238a19.346,19.346,0,0,1,4.723-4.016A9.24,9.24,0,0,0,657.493,456.2Z" transform="translate(-645.454 -452.747)" fill="#282929"/>
        </g>
      </g>
    </g>
  </g>
</svg>
